<?xml version="1.0" encoding="utf-8"?>
<!-- Generator: Adobe Illustrator 16.0.0, SVG Export Plug-In . SVG Version: 6.00 Build 0)  -->
<!DOCTYPE svg PUBLIC "-//W3C//DTD SVG 1.1//EN" "http://www.w3.org/Graphics/SVG/1.1/DTD/svg11.dtd">
<svg version="1.1" id="Layer_1" xmlns="http://www.w3.org/2000/svg" xmlns:xlink="http://www.w3.org/1999/xlink" x="0px" y="0px"
	 width="100px" height="100px" viewBox="0 0 100 100" enable-background="new 0 0 100 100" xml:space="preserve">
<path d="M88.674,0.284L11.693,0C5.415-0.023,0.307,5.048,0.284,11.327L0,88.306c-0.023,6.278,5.048,11.387,11.327,11.41L88.306,100
	c6.279,0.022,11.388-5.049,11.411-11.327L100,11.694C100.023,5.415,94.952,0.307,88.674,0.284z M70.769,13.197
	c0-2.667,2.162-4.828,4.829-4.828h11.416c2.666,0,4.828,2.162,4.828,4.828v11.417c0,2.667-2.162,4.828-4.828,4.828H75.598
	c-2.667,0-4.829-2.162-4.829-4.828V13.197z M30.764,41.63C33.996,34.211,41.39,29.023,50,29.023c8.61,0,16.004,5.188,19.237,12.607
	c1.117,2.564,1.741,5.394,1.741,8.37c0,11.584-9.393,20.977-20.978,20.977c-11.585,0-20.977-9.393-20.977-20.977
	C29.023,47.024,29.646,44.195,30.764,41.63z M91.858,86.878c0,2.75-2.229,4.979-4.98,4.979H13.122c-2.751,0-4.98-2.229-4.98-4.979
	V41.63h13.962c-0.794,2.651-1.223,5.46-1.223,8.37c0,16.082,13.037,29.119,29.119,29.119c16.083,0,29.12-13.037,29.12-29.119
	c0-2.91-0.429-5.718-1.224-8.37h13.963V86.878z"
  fill="pink"
  />
</svg>
