<?xml version="1.0" encoding="utf-8"?>
<!-- Generator: Adobe Illustrator 16.0.0, SVG Export Plug-In . SVG Version: 6.00 Build 0)  -->
<!DOCTYPE svg PUBLIC "-//W3C//DTD SVG 1.1//EN" "http://www.w3.org/Graphics/SVG/1.1/DTD/svg11.dtd">
<svg version="1.1" id="Layer_1" xmlns="http://www.w3.org/2000/svg" xmlns:xlink="http://www.w3.org/1999/xlink" x="0px" y="0px"
	 width="76.504px" height="100px" viewBox="218.604 393.104 76.504 100" enable-background="new 218.604 393.104 76.504 100"
	 xml:space="preserve">
<path d="M258.176,393.104c-25.842,0-39.572,17.367-39.572,36.233c0,8.834,4.687,19.765,12.156,23.213
	c1.144,0.528,1.739,0.3,2.004-0.824c0.205-0.82,1.219-4.937,1.669-6.811c0.135-0.601,0.07-1.123-0.425-1.724
	c-2.474-2.988-4.442-8.534-4.442-13.695c0-13.175,9.988-25.976,27.025-25.976c14.714,0,25.022,10.033,25.022,24.327
	c0,16.198-8.195,27.415-18.828,27.415c-5.869,0-10.291-4.857-8.867-10.817c1.694-7.12,4.957-14.805,4.957-19.944
	c0-4.593-2.469-8.435-7.584-8.435c-6.001,0-10.833,6.236-10.833,14.544c0,5.301,1.794,8.898,1.794,8.898s-5.931,25.083-7.025,29.765
	c-0.188,0.811-0.322,1.686-0.435,2.581c-0.603,4.821-0.212,10.603,0.23,14.6l0.361,6.649l3.576-5.07
	c2.468-3.967,6.14-10.496,7.484-15.718l0.121-0.461l3.622-13.77c2.019,3.747,7.714,6.89,13.779,6.89
	c18.118,0,31.143-16.623,31.143-37.282C295.108,407.929,278.95,393.104,258.176,393.104z"
  fill="pink"
  />
</svg>
