<?xml version="1.0" encoding="utf-8"?>
<!-- Generator: Adobe Illustrator 16.0.0, SVG Export Plug-In . SVG Version: 6.00 Build 0)  -->
<!DOCTYPE svg PUBLIC "-//W3C//DTD SVG 1.1//EN" "http://www.w3.org/Graphics/SVG/1.1/DTD/svg11.dtd">
<svg version="1.1" id="Layer_1" xmlns="http://www.w3.org/2000/svg" xmlns:xlink="http://www.w3.org/1999/xlink" x="0px" y="0px"
	 width="100px" height="83.06px" viewBox="267.417 440.979 100 83.06" enable-background="new 267.417 440.979 100 83.06"
	 xml:space="preserve">
<path d="M357.749,462.039c1.705,32.491-23.253,60.213-55.744,61.918c-12.189,0.64-24.275-2.521-34.588-9.048
	c10.552,0.693,20.988-2.534,29.305-9.063c-8.088-0.964-14.904-6.487-17.522-14.199c3.127,0.502,6.328,0.296,9.365-0.604
	c-9.685-1.822-16.827-10.093-17.22-19.939c2.687,1.077,5.565,1.591,8.459,1.511c-8.331-6.445-10.649-18.038-5.438-27.19
	c10.485,12.948,25.962,20.851,42.598,21.752c-3.287-10.685,2.709-22.012,13.394-25.3c7.882-2.426,16.446,0.173,21.652,6.569
	c4.629-0.831,9.045-2.577,12.991-5.137c-1.504,4.903-4.865,9.023-9.366,11.48c4.091-0.414,8.078-1.538,11.783-3.323
	C365.641,456.081,362.189,459.857,357.749,462.039z"
  fill="pink"
  />
</svg>
